<?xml version="1.0" encoding="utf-8"?>
<!-- Generator: Adobe Illustrator 23.0.1, SVG Export Plug-In . SVG Version: 6.00 Build 0)  -->
<svg version="1.1" id="Layer_7" xmlns="http://www.w3.org/2000/svg" xmlns:xlink="http://www.w3.org/1999/xlink" x="0px" y="0px"
	 viewBox="0 0 471 55.75" style="enable-background:new 0 0 471 55.75;" xml:space="preserve">
<style type="text/css">
	.st0{fill:#FFFFFF;}
	.st1{fill-rule:evenodd;clip-rule:evenodd;fill:#FFFFFF;}
	.st2{fill:#007360;}
	.st3{fill:#E7D1B9;}
	.st4{fill:#BC0A40;}
	.st5{fill-rule:evenodd;clip-rule:evenodd;fill:#007360;}
</style>
<g>
	<path class="st0" d="M61.58,18.14c0.32-0.05,0.48-0.16,0.48-0.16c0-0.21-0.05-0.26-0.34-0.26c-0.57,0-0.91,0.1-1.47,0.1
		c-0.61,0-1.09-0.07-1.61-0.07c-0.29,0-0.27,0.09-0.27,0.26c0,0.19,0.57,0.07,0.88,0.78c0.18,0.38,0.11,1.18-0.07,1.65l-4.35,11.94
		l-1.86-5.3l-0.73-1.93c0,0-0.11,0.05,0.41-1.55l1.02-3.06c0.5-1.51,1-2.3,1.63-2.31c0.8-0.01,0.8-0.49,0.19-0.49
		c-0.61,0-0.98,0.05-1.52,0.05c-0.57,0-0.86-0.05-1.47-0.05c-0.23,0-0.48,0.07-0.45,0.26c0.02,0.19,0.36,0.12,0.61,0.26
		c0.41,0.21,0.68,1.08,0.39,2l-1.2,3.84l-1.36-3.58c-0.27-0.68-0.63-2.18,0.03-2.32c0.63-0.13,0.55-0.46,0.16-0.46
		c-0.75,0-1.14,0.1-1.87,0.1c-0.79,0-1.38-0.1-2.13-0.1c-0.16,0-0.45,0.02-0.36,0.33c0.05,0.19,0.43,0.12,0.66,0.26
		c0.91,0.59,1.09,1.34,1.4,2.19l1.99,5.63c0.36,1.01,0.39,0.64,0.09,1.51l-1.74,4.78l-4.28-12.26c-0.34-0.92-0.52-1.56,0.23-1.91
		c0.32-0.16,0.41-0.2,0.45-0.26c0.04-0.06,0.08-0.28-0.39-0.26c-0.77,0.03-1.25,0.1-2.02,0.1c-0.82,0-1.38-0.1-2.13-0.1
		c-0.25,0-0.29,0.12-0.29,0.31c0,0.28,0.61,0.1,1.13,0.71c0.29,0.33,0.86,1.44,1,1.84l5.17,14.86c0.09,0.22,0.12,0.65,0.42,0.65
		c0.24,0,0.28-0.5,0.37-0.69l2.72-7.46l2.65,7.09c0.11,0.28,0.27,1.06,0.54,1.06c0.23,0,0.31-0.37,0.43-0.72l5.12-14.65
		C60.27,19.53,60.77,18.28,61.58,18.14z"/>
	<path class="st0" d="M118.42,23.96c-2.83,0-5.02,2.85-5.02,6.19c0,1.7,0.46,3.05,1.23,4.02c-0.27,0.18-0.8,0.6-1.87,0.6
		c-0.93,0-1.47-0.55-1.51-1.74v-7.25c0,0,2.78-0.01,2.94-0.01c0.19,0,0.56-1.25,0.58-1.32c0.03-0.16,0.09-0.28,0.1-0.4
		c0.04-0.24-0.15-0.26-0.32-0.01c-0.14,0.13-0.28,0.48-0.86,0.48h-2.44c0-2.09,0.02-3.04-0.3-3.04c-0.31,0-0.26,0.09-0.55,1.02
		c-0.38,1.25-1.55,1.93-2.28,2.33c-0.33,0.07-0.7,0.1-1.12,0.01c-0.64-0.14-1.39-0.91-3.32-0.91c-2.07,0-3.87,1.69-3.87,3.95
		c0,1.22,0.54,2.39,1.49,3.02c-0.18,0.11-1.33,1.08-1.19,2.22c0,0-0.02,1.18,0.91,1.58c-0.29,0.11-0.58,0.31-0.84,0.55
		c-0.61-0.22-1.5-0.05-1.5-1.65v-4.42c0-2.03-0.65-5-3.67-5c-2.18,0-3.31,2.07-3.26,1.75v-1.53c0-0.27-0.13-0.43-0.27-0.43
		c-0.52,0-0.63,0.86-2.52,1.35c-0.11,0.03-0.37,0.09-0.38,0.29c0,0.56,1.52-0.61,1.53,1.47v6.64c0,1.43-1.13,1.43-1.33,1.45
		c-0.08,0-0.17,0-0.27,0c-0.48-0.05-1.31-0.26-1.31-1.16v-9.61c0-0.27-0.14-0.43-0.27-0.43c-0.52,0-0.85,0.94-2.29,1.42
		c-0.11,0.03-0.32,0.05-0.32,0.21c0,0.56,1.29-0.53,1.24,1.47v6.32c0.05,1.54-0.75,1.75-1.25,1.77c-0.6-0.07-1.06-0.32-1.06-1.23
		v-4.47c0-2.3-0.88-5.27-3.76-5.27c-1.28,0-2.38,0.71-3.24,1.67v-7.69c0-0.27-0.14-0.42-0.27-0.43c-0.35-0.02-0.93,1.04-2.57,1.41
		c-0.11,0.03-0.54,0.06-0.54,0.22c0,0.56,1.7-0.27,1.73,1.47v13.12c0,1.31-1.12,1.13-1.33,1.55c-0.03,0.18,0.07,0.27,0.23,0.27
		c0.36,0,1.35-0.11,2.05-0.11c0.7,0,1.82,0.11,2.29,0.11c0.27,0,0.38-0.05,0.38-0.37c-0.23-0.46-1.98,0.24-1.98-2.06v-5.65
		c0-1.36,1.62-2.41,2.63-2.41c0.79,0,2.72,0.62,2.72,3.94v4.9c0,0.96-1.02,1.06-1.1,1.37c0,0.21,0.13,0.29,0.36,0.29
		c0.25,0,0.97-0.11,1.84-0.11c0.49,0,0.93,0.03,1.31,0.05c0.2,0.04,0.49,0.04,0.85,0.05c0.25,0,0.86-0.09,1.58-0.09
		c0.71,0,1.28,0.06,1.73,0.09c0.09,0.01,0.17,0.01,0.26,0.01c0.03,0,0.07,0,0.1,0c0,0,0,0,0.01,0c0.27,0,0.53,0,0.64,0
		c0.27,0,0.72-0.11,1.91-0.11c1.3,0,1.75,0.11,2.14,0.11c0.34,0,0.73-0.15,0.49-0.37c-0.36-0.35-1.98,0.05-1.98-1.79v-6.16
		c-0.02-0.43,0.76-2.09,2.65-2.09c1.82,0,2.63,2.01,2.63,3.35v5c0,1.74-0.7,1.34-0.97,1.74c-0.15,0.22,0.11,0.32,0.4,0.32
		c0.29,0,0.76-0.11,1.62-0.11c0.81,0,1.33,0.06,1.66,0.09c-0.25,0.36-0.42,0.78-0.45,1.22c-0.12,2.18,2.55,2.96,4.79,2.93
		c4.45-0.06,5.71-3.15,4.78-4.78c-0.95-1.69-2.98-1.62-4.93-1.61c-3.65,0.01-2.96-2.25-1.47-2.16c0.34,0.02,0.18,0.12,1.36,0.12
		c2.11,0,4.14-1.44,4.08-3.8c0-0.2,0.05-0.89-0.46-1.86c0.99,0,0.6,0,2.09,0l-0.01,6.62c0,2.99,1.42,3.5,2.49,3.5
		c1.52,0,2.62-1,2.81-1.46c0.89,0.95,2.14,1.46,3.58,1.46c2.77,0,4.86-2.55,4.86-5.89C123.3,24.96,120.13,23.96,118.42,23.96z
		 M102.14,34.91c0.18-0.01,0.23,0.07,2.29,0.15c2.13,0.05,2.9,0.67,3.03,1.22c0.23,0.97-0.46,3.06-3.52,2.86
		c-1.92-0.12-2.49-1.04-2.63-1.25C100.59,36.87,101.18,34.97,102.14,34.91z M103.89,30.94c-1.81,0-2.41-1.74-2.41-3.39
		c0-1.7,0.51-3.11,2.32-3.11c1.83,0,2.56,1.88,2.56,3.53C106.37,29.65,105.6,30.94,103.89,30.94z M118.64,35.12
		c-2.63,0-3.67-3.26-3.67-5.92c0-2.31,0.9-4.43,3.1-4.43c2.68,0,3.64,2.86,3.64,5.65C121.73,33.78,120.53,35.12,118.64,35.12z"/>
	<path class="st0" d="M132.96,33.59v-4.41c0-2.03-0.65-5.01-3.67-5.01c-2.18,0-3.31,2.07-3.26,1.75v-1.54
		c0-0.27-0.14-0.43-0.27-0.43c-0.52,0-0.9,0.88-2.66,1.41c-0.11,0.03-0.44,0.03-0.45,0.23c0,0.56,1.77-0.73,1.74,1.47v6.64
		c0,1.74-1.17,1.32-1.44,1.78c-0.14,0.23,0.22,0.29,0.51,0.29c0.27,0,0.72-0.11,1.91-0.11c1.3,0,1.75,0.11,2.14,0.11
		c0.34,0,0.73-0.15,0.49-0.37c-0.36-0.35-1.98,0.05-1.98-1.79v-6.16c-0.02-0.43,0.76-2.09,2.65-2.09c1.82,0,2.63,2.01,2.63,3.35v5
		c-0.02,1.96-0.7,1.34-0.97,1.74c-0.15,0.22,0.11,0.32,0.4,0.32c0.29,0,0.77-0.11,1.62-0.11c1.1,0,1.58,0.1,1.88,0.1
		c0.23,0,0.63-0.17,0.38-0.38C134.06,34.92,132.94,35.61,132.96,33.59z"/>
	<path class="st0" d="M86.34,23.14c0.29,0,0.92-1.04,0.92-1.36c0-0.31-0.64-1.38-0.92-1.38c-0.26,0-0.92,1.1-0.92,1.38
		C85.42,22.07,86.07,23.14,86.34,23.14z"/>
	<path class="st0" d="M71.31,29.18c-0.44-0.21-1.1-0.59-1.43-0.77c-1.41-0.77-1.97-1.28-2.01-2c-0.07-1.25,1-1.9,1.92-1.81
		c2.2-0.04,2.5,2.43,2.72,2.43c0.34,0,0.25-0.32,0.25-1.05c0-0.19,0.02-1.11-0.11-1.32c-0.27-0.41-1.83-0.64-2.21-0.64
		c-0.1,0-0.46-0.01-0.52-0.01c-0.11,0-0.25,0.01-0.25,0.01c-1.57-0.02-3.04,0.97-2.99,3.07c0.04,1.92,2.29,3.01,3.51,3.73
		c0.9,0.51,1.96,1,1.94,2.23c-0.02,1.4-1.1,2.33-2.27,2.25c-2.73-0.05-2.36-3.48-2.85-3.48c-0.34,0-0.27,0.86-0.27,1.32
		c0,0.44-0.01,0.85-0.01,1.19c-0.06,0.31-0.18,0.6-0.47,0.62c-1.08,0.06-0.82-1.65-0.82-2.56v-5.59c-0.05-1.71-1.34-2.82-3.29-2.82
		c-2.69,0-4.61,3.31-3.7,4.34c0.22,0.25,1.09-0.7,1.15-0.75c0.05-0.05,0.06-0.11,0.06-0.11c-0.01-1.13,0.84-2.56,2.06-2.68
		c1.39-0.14,2.08,0.9,2.08,2.3v1.82c-5.26,1.05-6.02,2.8-6.02,4.23c0,1.92,1.35,2.77,2.81,2.77c1.26,0,2.5-0.59,3.44-1.56
		c0.29,0.89,0.88,1.43,1.75,1.4c0.3-0.01,0.35,0.08,1.27-0.32c0.32-0.08,0.3-0.08,0.67-0.01c0.48,0.17,1.15,0.5,2.31,0.5
		c1.76,0.03,3.34-1.61,3.34-3.63C73.38,31.03,73.02,30.24,71.31,29.18z M63.99,32.93c0,1.43-1.45,2.19-2.26,2.19
		c-1.19,0-2.03-0.78-2.03-2.31c0-2.37,2.85-2.81,4.29-3.18V32.93z"/>
	<path class="st0" d="M225.26,26.01c-0.65-0.32-1.61-0.9-2.08-1.18c-2.06-1.18-2.87-1.96-2.93-3.06c-0.1-1.92,1.77-3.05,3.11-2.91
		c1.7,0,3.1,1.03,3.68,3.24c0.06,0.23,0.27,0.77,0.49,0.77c0.19,0,0.23-0.18,0.21-0.39l-0.29-3.49c-0.02-0.28-0.11-0.36-0.23-0.36
		c-0.19,0-0.31,0.28-0.48,0.28c-0.27,0-0.96-0.97-3.3-0.95c-0.16,0-0.37,0.02-0.37,0.02c-2.28-0.04-4.43,1.48-4.36,4.69
		c0.06,2.93,3.34,4.6,5.11,5.72c1.31,0.78,2.68,2.04,2.64,3.43c-0.07,2.14-1.41,3.54-3.11,3.42c-3.98-0.07-3.44-5.32-4.16-5.32
		c-0.49,0-0.39,1.32-0.39,2.02c0,1.66-0.07,3.03,0.12,3.27c0.06,0.08,0.25,0.04,0.64,0.04c0.79,0,1.74,0.91,4.04,0.91
		c2.57,0.04,4.67-2.33,4.67-5.43C228.27,28.84,227.74,27.63,225.26,26.01z"/>
	<g>
		<path class="st0" d="M351.06,23.14c0.29,0,0.92-1.04,0.92-1.36c0-0.31-0.64-1.38-0.92-1.38c-0.26,0-0.92,1.1-0.92,1.38
			C350.14,22.07,350.8,23.14,351.06,23.14z"/>
		<path class="st0" d="M363.06,33.59v-4.41c0-2.03-0.65-5.01-3.67-5.01c-2.18,0-3.31,2.07-3.26,1.75v-1.54
			c0-0.27-0.14-0.43-0.27-0.43c-0.52,0-0.9,0.88-2.66,1.41c-0.11,0.03-0.44,0.03-0.45,0.23c0,0.56,1.77-0.73,1.74,1.47v6.64
			c0,1.25-0.61,1.34-1.05,1.46c-0.03,0-0.05,0-0.08,0c-0.45-0.03-1.41-0.2-1.41-1.17v-9.61c0-0.27-0.13-0.43-0.27-0.43
			c-0.52,0-0.85,0.94-2.29,1.42c-0.11,0.03-0.32,0.05-0.32,0.21c0,0.56,1.29-0.53,1.24,1.47v6.32c0.05,1.62-0.83,1.77-1.32,1.77
			c-0.73-0.01-0.55,0.08-0.55,0.31c0.02,0.27,0.46,0.29,1.18,0.29c0.25,0,0.86-0.09,1.58-0.09c0.92,0,1.62,0.11,2.09,0.11
			c0.27,0,1-0.11,2.19-0.11c1.31,0,1.76,0.11,2.14,0.11c0.34,0,0.73-0.15,0.5-0.37c-0.36-0.35-1.98,0.05-1.98-1.79v-6.16
			c-0.02-0.43,0.76-2.09,2.65-2.09c1.82,0,2.63,2.01,2.63,3.35v5c-0.02,1.96-0.7,1.34-0.97,1.74c-0.15,0.22,0.11,0.32,0.4,0.32
			c0.29,0,0.77-0.11,1.62-0.11c1.1,0,1.58,0.1,1.88,0.1c0.23,0,0.63-0.17,0.38-0.38C364.17,34.92,363.05,35.61,363.06,33.59z"/>
	</g>
	<g>
		<g>
			<path class="st0" d="M377.25,23.14c0.29,0,0.92-1.04,0.92-1.36c0-0.31-0.64-1.38-0.92-1.38c-0.26,0-0.92,1.1-0.92,1.38
				C376.32,22.07,376.98,23.14,377.25,23.14z"/>
			<path class="st0" d="M389.25,33.59v-4.41c0-2.03-0.65-5.01-3.67-5.01c-2.18,0-3.31,2.07-3.26,1.75v-1.54
				c0-0.27-0.14-0.43-0.27-0.43c-0.52,0-0.9,0.88-2.66,1.41c-0.11,0.03-0.44,0.03-0.45,0.23c0,0.56,1.77-0.73,1.74,1.47v6.64
				c0,1.25-0.61,1.34-1.05,1.46c-0.03,0-0.05,0-0.08,0c-0.45-0.03-1.41-0.2-1.41-1.17v-9.61c0-0.27-0.13-0.43-0.27-0.43
				c-0.52,0-0.85,0.94-2.29,1.42c-0.11,0.03-0.32,0.05-0.32,0.21c0,0.56,1.29-0.53,1.24,1.47v6.32c0.05,1.62-0.83,1.77-1.32,1.77
				c-0.73-0.01-0.55,0.08-0.55,0.31c0.02,0.27,0.46,0.29,1.18,0.29c0.25,0,0.86-0.09,1.58-0.09c0.92,0,1.62,0.11,2.09,0.11
				c0.27,0,1-0.11,2.19-0.11c1.31,0,1.76,0.11,2.14,0.11c0.34,0,0.73-0.15,0.5-0.37c-0.36-0.35-1.98,0.05-1.98-1.79v-6.16
				c-0.02-0.43,0.76-2.09,2.65-2.09c1.82,0,2.63,2.01,2.63,3.35v5c-0.02,1.96-0.7,1.34-0.97,1.74c-0.15,0.22,0.11,0.32,0.4,0.32
				c0.29,0,0.77-0.11,1.62-0.11c1.1,0,1.58,0.1,1.88,0.1c0.23,0,0.63-0.17,0.38-0.38C390.35,34.92,389.23,35.61,389.25,33.59z"/>
		</g>
		<path class="st0" d="M411.29,33.1c-0.27,0-0.93,1.12-0.93,1.41c0,0.29,0.67,1.39,0.93,1.39c0.29,0,0.93-1.07,0.93-1.39
			C412.22,34.19,411.58,33.1,411.29,33.1z"/>
		<path class="st0" d="M440.56,34.07v-9.41c0-0.53-0.3-0.67-0.38-0.67c-0.34,0-0.53,0.08-0.76,0.14c-0.23,0.08-0.51,0.21-1.12,0.21
			c-0.11,0-0.69-0.1-0.66,0.22c0.04,0.32,1.36,0.13,1.37,1.07v6.8c-0.1,1.19-1.1,2.5-2.31,2.5c-0.28,0-2.08-0.2-2.06-3.17v-7.09
			c0-0.53-0.3-0.67-0.38-0.67c-0.34,0-0.53,0.08-0.76,0.14c-0.23,0.08-0.53,0.19-1.14,0.17c-0.33-0.01-0.69-0.06-0.63,0.25
			c0.05,0.28,1.38,0,1.38,1.07v6.53c0,2.38,1.4,3.75,3.09,3.75c1.12,0,2.16-0.24,2.82-1.56h0.04v1.14c0,0.11,0.02,0.42,0.19,0.42
			c0.32,0,0.49-0.26,0.72-0.35c0.25-0.06,0.32-0.29,1.11-0.36c0.34-0.03,0.71-0.21,0.71-0.43C441.67,34.28,440.56,34.8,440.56,34.07
			z"/>
		<path class="st0" d="M427.28,23.96c-2.83,0-5.02,2.85-5.02,6.19c0,1.5,0.36,2.74,0.98,3.67c-0.69,0.49-1.94,0.96-4.31,0.96
			c-1.85,0-1.68-0.64-1.68-2.21V20.02c0-2.32,1.73-1.64,1.77-2.06c0.02-0.29-0.24-0.23-0.53-0.23c-0.33,0-0.93,0.13-2.18,0.13
			c-1.08,0-2.03-0.1-2.5-0.1c-0.29,0-0.55,0.08-0.45,0.3c0.22,0.49,1.85,0.05,1.85,1.43V32.6c0,1.25,0.19,2.05-0.39,2.37
			c-0.7,0.43-1.53,0.45-1.46,0.72c0.04,0.17,0.39,0.18,0.59,0.18c0.88,0,2.1-0.11,2.99-0.13c1.68-0.05,3.35,0.11,5.03,0.11
			c0.97,0,1.22-0.2,1.92-1.15c0.01-0.02,0.02-0.03,0.03-0.04c0.87,0.82,2.03,1.25,3.36,1.25c2.77,0,4.86-2.55,4.86-5.89
			C432.17,24.96,428.99,23.96,427.28,23.96z M427.51,35.12c-2.63,0-3.67-3.26-3.67-5.92c0-2.31,0.9-4.43,3.1-4.43
			c2.68,0,3.64,2.86,3.64,5.65C430.59,33.78,429.4,35.12,427.51,35.12z"/>
		<path class="st0" d="M399.69,26.01c-0.65-0.32-1.61-0.9-2.08-1.18c-2.06-1.18-2.87-1.96-2.93-3.06c-0.1-1.92,1.77-3.05,3.11-2.91
			c1.7,0,3.1,1.03,3.68,3.24c0.06,0.23,0.27,0.77,0.49,0.77c0.19,0,0.23-0.18,0.21-0.39l-0.29-3.49c-0.02-0.28-0.11-0.36-0.23-0.36
			c-0.19,0-0.31,0.28-0.48,0.28c-0.27,0-0.96-0.97-3.3-0.95c-0.16,0-0.37,0.02-0.37,0.02c-2.28-0.04-4.43,1.48-4.36,4.69
			c0.06,2.93,3.34,4.6,5.11,5.72c1.31,0.78,2.68,2.04,2.64,3.43c-0.07,2.14-1.41,3.54-3.11,3.42c-3.98-0.07-3.44-5.32-4.16-5.32
			c-0.49,0-0.39,1.32-0.39,2.02c0,1.66-0.07,3.03,0.12,3.27c0.06,0.08,0.25,0.04,0.64,0.04c0.79,0,1.74,0.91,4.04,0.91
			c2.57,0.04,4.67-2.33,4.67-5.43C402.71,28.84,402.17,27.63,399.69,26.01z"/>
		<path class="st0" d="M444.58,23.14c0.29,0,0.92-1.04,0.92-1.36c0-0.31-0.64-1.38-0.92-1.38c-0.26,0-0.92,1.1-0.92,1.38
			C443.65,22.07,444.31,23.14,444.58,23.14z"/>
		<path class="st0" d="M446.87,35.16c-0.45-0.03-1.41-0.2-1.41-1.17v-9.61c0-0.27-0.14-0.43-0.27-0.43c-0.52,0-0.85,0.94-2.29,1.42
			c-0.11,0.03-0.32,0.05-0.32,0.21c0,0.56,1.29-0.53,1.24,1.47v6.32c0.05,1.62-0.83,1.78-1.32,1.77c-0.51-0.01-0.55,0.08-0.55,0.31
			c0.02,0.27,0.46,0.29,1.18,0.29c0.25,0,0.86-0.09,1.58-0.09c0.92,0,1.62,0.11,2.09,0.11C447.1,35.75,447.46,35.06,446.87,35.16z"
			/>
		<path class="st0" d="M452.05,29.17c-0.44-0.21-1.1-0.59-1.43-0.77c-1.41-0.77-1.97-1.28-2.01-2c-0.07-1.25,1-1.9,1.92-1.81
			c2.2-0.04,2.5,2.43,2.72,2.43c0.34,0,0.25-0.32,0.25-1.05c0-0.19,0.02-1.11-0.11-1.32c-0.27-0.4-1.83-0.64-2.21-0.64
			c-0.1,0-0.46-0.01-0.52-0.01c-0.11,0-0.25,0.01-0.25,0.01c-1.57-0.02-3.04,0.97-2.99,3.07c0.04,1.91,2.29,3.01,3.51,3.73
			c0.9,0.51,1.96,1,1.94,2.23c-0.02,1.4-1.1,2.33-2.27,2.25c-2.73-0.05-2.36-3.48-2.85-3.48c-0.34,0-0.27,0.86-0.27,1.32
			c0,1.08-0.05,1.98,0.08,2.14c0.04,0.05,0.17,0.02,0.44,0.02c0.54,0,1.2,0.6,2.77,0.6c1.76,0.03,3.34-1.61,3.34-3.63
			C454.12,31.02,453.76,30.23,452.05,29.17z"/>
		<path class="st0" d="M409.74,34.1c-0.23,0.11-0.74,0.67-1.97,0.67c-0.93,0-1.46-0.55-1.51-1.74v-7.66c0,0,2.78-0.01,2.93-0.01
			c0.19,0,0.56-1.25,0.58-1.32c0.03-0.16,0.09-0.29,0.1-0.4c0.04-0.24-0.15-0.26-0.32-0.01c-0.14,0.13-0.28,0.48-0.86,0.48h-2.44
			c0-2.09,0.02-2.64-0.3-2.64c-0.31,0-0.26,0.08-0.55,1.02c-0.47,1.56-2.18,2.24-2.73,2.58c-0.13,0.07-0.13,0.09-0.13,0.17
			c-0.01,0.2,0.65,0.12,2.01,0.15l0,7.01c0,2.99,1.42,3.5,2.49,3.5c1.62,0,2.79-1.16,2.85-1.56C409.9,34.1,409.87,34.08,409.74,34.1
			z"/>
	</g>
	<path class="st0" d="M182.86,33.14c-0.49,0-1.24,1.41-3.18,1.41c-1.37,0-3.63-1.33-3.63-5.78h5.99c0.52,0,0.77,0.03,0.77-0.46
		c0-1.08-1.22-4.3-3.99-4.3c-2.82,0-4.42,2.89-4.42,6.35c0,1.78,1.17,5.54,4.55,5.54c2.03,0,3.99-1.94,3.99-2.57
		C182.95,33.25,182.95,33.14,182.86,33.14z M178.44,24.63c1.24,0,2.5,1.35,2.5,2.86c0,0.41-0.13,0.54-0.45,0.54h-4.44
		C176.05,26.55,177.04,24.63,178.44,24.63z"/>
	<path class="st0" d="M150.92,18.26c0.09-0.14-0.22-0.21-0.32-0.21c-0.36,0-1.19,0.09-1.56,0.09c-0.78,0-1.42-0.07-2.2-0.07
		c-0.06,0-0.4,0.04-0.4,0.16c-0.01,0.55,1.85-0.09,1.85,2.25v9.18c0,2.71-0.85,5.57-4.59,5.57c-2.68,0-4.14-1.68-4.14-5.36v-9.99
		c0-1.66,1.3-1.3,1.32-1.67c0.03-0.35-1.15-0.14-1.25-0.14c-0.62,0-1.05,0.06-1.69,0.06c-0.54,0-1.19-0.08-1.7-0.08
		c-0.1,0-0.47-0.02-0.53,0.13c-0.2,0.49,1.66,0.23,1.66,1.59v9.48c0,3.54,0.99,7.01,6.22,6.92c6.2-0.1,6.08-5.68,6.08-6.81V20.5
		C149.69,18.38,150.72,18.58,150.92,18.26z"/>
	<path class="st0" d="M175.41,24.55c0.15-0.18,0.2-0.46-0.5-0.4c-0.38,0-0.67,0.07-1.06,0.07c-0.49,0-0.59-0.02-1.06-0.03
		c-0.59-0.02-0.75,0.04-0.72,0.22c0.1,0.53,1.34,0.01,1.18,1.56c-0.14,1.3-0.56,2.42-0.99,3.53l-1.51,4.01l-2.21-6.68
		c-0.27-0.83-0.38-1.28-0.38-1.36c0-0.84,1.01-0.64,1.23-1c0.14-0.22-0.15-0.34-0.47-0.34c-0.27,0-0.58,0.09-1.41,0.11
		c-0.69,0.02-1.18,0.01-1.48-0.04c-0.78-0.14-0.71,0.29-0.44,0.42c0.27,0.13,0.4,0.01,0.79,1.17l3.4,9.6
		c0.07,0.19,0.16,0.67,0.45,0.67c0.34,0,0.34-0.33,0.77-1.47c0,0,3.25-9.1,3.48-9.43C174.91,24.53,175.24,24.74,175.41,24.55z"/>
	<path class="st0" d="M187.96,24.12c-0.92,0-1.57,1.11-2.03,1.88h-0.04v-1.67c0-0.26-0.13-0.42-0.26-0.42
		c-0.35,0-0.62,0.71-2.49,1.15c-0.11,0.03-0.42,0.09-0.42,0.25c0,0.56,1.58-0.17,1.58,1.67v7.01c0,1.08-1.12,0.98-1.12,1.54
		c0,0.16,0.07,0.24,0.24,0.24c0.15,0,0.55-0.11,2.02-0.11c1.23,0,1.75,0.11,2.06,0.11c0.24,0,0.35-0.05,0.35-0.29
		c0-0.85-1.95,0.42-1.95-2.04v-5.98c0-0.34,0.53-1.56,1.42-1.56c0.79,0,0.89,0.61,1.3,0.61c0.26,0,0.79-0.79,0.79-1.19
		C189.41,24.81,188.42,24.12,187.96,24.12z"/>
	<path class="st0" d="M216.23,24.21c-0.23,0-0.84,0.04-1.38,0.04c-0.66,0-0.98-0.08-1.26-0.08c-0.42,0-0.83,0-0.76,0.28
		c0.08,0.31,1.5,0.2,1.5,1.75c0,0.2,0,0.46-0.28,1.49l-1.81,5.76l-2.51-7.08c0,0-0.12-0.23-0.12-0.69c0-1.14,1.34-1.02,1.39-1.22
		c0.04-0.17-0.18-0.34-0.54-0.34c-0.38,0-0.93,0-1.76,0c-0.13,0-0.25,0-0.37,0c0,0,0,0,0-0.01h-1.01c-0.01,0-0.02,0.01-0.04,0.01
		h-2.44c0-2.09,0.02-2.64-0.3-2.64c-0.31,0-0.26,0.09-0.55,1.02c-0.47,1.56-2.18,2.24-2.73,2.58c-0.13,0.07-0.13,0.09-0.13,0.17
		c-0.01,0.2,0.65,0.12,2.01,0.15l-0.01,7.01c0,2.99,1.42,3.5,2.49,3.5c1.63,0,2.79-1.15,2.85-1.56c0-0.23-0.03-0.25-0.16-0.23
		c-0.23,0.11-0.74,0.67-1.97,0.67c-0.93,0-1.47-0.55-1.51-1.74v-7.66c0,0,2.17-0.01,2.78-0.01c0.03,0.05,0.07,0.11,0.09,0.17
		l2.6,7.34c0.21,0.6,0.34,0.8,0.59,1.86c0.17,0.69,0.11,1.31,0.11,1.31c-0.25,1.1-0.93,1.74-1.96,3.77c-0.1,0.2,1.49-0.02,1.57-0.04
		c0.13-0.04,0.11-0.08,0.27-0.36l1.15-3.42l3.21-9.85c0.47-1.72,1.21-1.41,1.33-1.64C216.63,24.35,216.51,24.21,216.23,24.21z"/>
	<polygon class="st0" points="212.08,35.81 212.03,35.98 212.01,36.02 	"/>
	<path class="st0" d="M199.27,23.14c0.29,0,0.92-1.04,0.92-1.36c0-0.31-0.64-1.38-0.92-1.38c-0.26,0-0.92,1.1-0.92,1.38
		C198.35,22.07,199.01,23.14,199.27,23.14z"/>
	<path class="st0" d="M201.56,35.16c-0.45-0.03-1.41-0.2-1.41-1.17v-9.61c0-0.27-0.14-0.43-0.27-0.43c-0.52,0-0.85,0.94-2.29,1.42
		c-0.11,0.03-0.32,0.05-0.32,0.21c0,0.56,1.29-0.53,1.24,1.47v6.32c0.05,1.62-0.83,1.77-1.32,1.77c-0.73-0.01-0.55,0.08-0.55,0.31
		c0.02,0.27,0.46,0.29,1.18,0.29c0.25,0,0.86-0.09,1.58-0.09c0.92,0,1.62,0.11,2.09,0.11C201.79,35.75,202.16,35.06,201.56,35.16z"
		/>
	<path class="st0" d="M322.66,33.14c-0.49,0-1.24,1.41-3.18,1.41c-1.37,0-3.63-1.33-3.63-5.78h5.99c0.52,0,0.77,0.03,0.77-0.46
		c0-1.08-1.22-4.3-3.99-4.3c-2.82,0-4.42,2.89-4.42,6.35c0,1.78,1.17,5.54,4.55,5.54c2.03,0,3.99-1.94,3.99-2.57
		C322.75,33.25,322.75,33.14,322.66,33.14z M318.24,24.63c1.24,0,2.5,1.35,2.5,2.86c0,0.41-0.13,0.54-0.45,0.54h-4.44
		C315.85,26.55,316.84,24.63,318.24,24.63z"/>
	<path class="st0" d="M372.49,33.14c-0.49,0-1.24,1.41-3.18,1.41c-1.37,0-3.63-1.33-3.63-5.78h5.99c0.52,0,0.77,0.03,0.77-0.46
		c0-1.08-1.22-4.3-3.99-4.3c-2.82,0-4.42,2.89-4.42,6.35c0,1.78,1.17,5.54,4.55,5.54c2.03,0,3.99-1.94,3.99-2.57
		C372.58,33.25,372.58,33.14,372.49,33.14z M368.08,24.63c1.24,0,2.5,1.35,2.5,2.86c0,0.41-0.13,0.54-0.45,0.54h-4.44
		C365.69,26.55,366.68,24.63,368.08,24.63z"/>
	<g>
		<path class="st0" d="M337.26,23.14c0.29,0,0.92-1.04,0.92-1.36c0-0.31-0.64-1.38-0.92-1.38c-0.26,0-0.92,1.1-0.92,1.38
			C336.34,22.07,337,23.14,337.26,23.14z"/>
		<path class="st0" d="M339.55,35.16c-0.45-0.03-1.41-0.2-1.41-1.17v-9.61c0-0.27-0.14-0.43-0.27-0.43c-0.52,0-0.85,0.94-2.29,1.42
			c-0.11,0.03-0.32,0.05-0.32,0.21c0,0.56,1.29-0.53,1.24,1.47v6.32c0.05,1.62-0.83,1.78-1.32,1.77c-0.27-0.01-0.55,0.08-0.55,0.31
			c0.02,0.27,0.46,0.29,1.18,0.29c0.25,0,0.86-0.09,1.58-0.09c0.92,0,1.62,0.11,2.09,0.11C339.78,35.75,340.15,35.06,339.55,35.16z"
			/>
	</g>
	<path class="st0" d="M163.71,23.14c0.29,0,0.92-1.04,0.92-1.36c0-0.31-0.64-1.38-0.92-1.38c-0.26,0-0.92,1.1-0.92,1.38
		C162.79,22.07,163.45,23.14,163.71,23.14z"/>
	<path class="st0" d="M166,35.16c-0.45-0.03-1.41-0.2-1.41-1.17v-9.61c0-0.27-0.13-0.43-0.27-0.43c-0.52,0-0.85,0.94-2.29,1.42
		c-0.11,0.03-0.32,0.05-0.32,0.21c0,0.56,1.29-0.53,1.24,1.47v6.32c0.05,1.62-0.83,1.77-1.32,1.77c-0.06,0-0.11,0-0.16,0
		c-0.47-0.08-0.91-0.28-0.91-1.56v-4.41c0-2.03-0.65-5.01-3.67-5.01c-2.18,0-3.31,2.07-3.26,1.75v-1.54c0-0.27-0.14-0.43-0.27-0.43
		c-0.52,0-0.9,0.88-2.66,1.41c-0.11,0.03-0.44,0.03-0.45,0.23c0,0.56,1.77-0.73,1.74,1.47v6.64c0,1.74-1.17,1.32-1.44,1.78
		c-0.14,0.23,0.22,0.29,0.51,0.29c0.27,0,0.72-0.11,1.91-0.11c1.3,0,1.75,0.11,2.14,0.11c0.34,0,0.73-0.15,0.5-0.37
		c-0.36-0.35-1.98,0.05-1.98-1.79v-6.16c-0.02-0.43,0.76-2.09,2.65-2.09c1.82,0,2.63,2.01,2.63,3.35v5
		c-0.02,1.96-0.7,1.34-0.97,1.74c-0.15,0.22,0.11,0.32,0.4,0.32c0.29,0,0.77-0.11,1.62-0.11c1.1,0,1.58,0.1,1.88,0.1
		c0.03,0,0.07,0,0.11-0.01c0.1,0,0.19,0.01,0.3,0.01c0.25,0,0.86-0.09,1.58-0.09c0.92,0,1.62,0.11,2.09,0.11
		C166.23,35.75,166.6,35.06,166,35.16z"/>
	<path class="st0" d="M194.42,29.17c-0.44-0.21-1.1-0.59-1.43-0.77c-1.41-0.77-1.97-1.28-2.01-2c-0.07-1.25,1-1.9,1.92-1.81
		c2.2-0.04,2.5,2.43,2.72,2.43c0.34,0,0.25-0.32,0.25-1.05c0-0.19,0.02-1.11-0.11-1.32c-0.27-0.4-1.83-0.64-2.21-0.64
		c-0.1,0-0.46-0.01-0.52-0.01c-0.11,0-0.24,0.01-0.24,0.01c-1.57-0.03-3.04,0.97-2.99,3.07c0.04,1.91,2.29,3.01,3.51,3.73
		c0.9,0.51,1.96,1,1.94,2.23c-0.02,1.4-1.1,2.33-2.27,2.25c-2.73-0.05-2.36-3.48-2.85-3.48c-0.34,0-0.27,0.86-0.27,1.32
		c0,1.09-0.05,1.98,0.08,2.14c0.04,0.05,0.17,0.02,0.44,0.02c0.54,0,1.2,0.6,2.77,0.6c1.76,0.03,3.34-1.61,3.34-3.63
		C196.49,31.02,196.13,30.22,194.42,29.17z"/>
	<path class="st0" d="M249.21,35.74c-0.01,0,0.3,0.02,0.2-0.3c-0.06-0.19-0.42-0.27-0.83-0.31c-0.57-0.05-1-0.34-1-1.22v-4.47
		c0-2.3-0.88-5.27-3.76-5.27c-1.28,0-2.38,0.71-3.24,1.67v-7.69c0-0.27-0.14-0.42-0.27-0.43c-0.35-0.02-0.93,1.04-2.57,1.41
		c-0.11,0.03-0.54,0.06-0.54,0.22c0,0.56,1.7-0.27,1.73,1.47v13.12c0,1.31-1.12,1.13-1.33,1.55c-0.03,0.18,0.07,0.27,0.23,0.27
		c0.36,0,1.35-0.11,2.05-0.11c0.7,0,1.82,0.11,2.29,0.11c0.27,0,0.38-0.05,0.38-0.37c-0.23-0.46-1.98,0.24-1.98-2.06v-5.65
		c0-1.36,1.62-2.41,2.63-2.41c0.79,0,2.72,0.62,2.72,3.94v4.9c0,0.96-1.02,1.06-1.1,1.37c0,0.21,0.13,0.29,0.36,0.29
		c0.25,0,0.97-0.11,1.84-0.11c0.49,0,0.93,0.03,1.31,0.05C248.55,35.74,248.84,35.74,249.21,35.74"/>
	<path class="st0" d="M276.7,33.84c0.13,0.18,0.37,0.52,0.68,0.81c0.87,0.82,2.03,1.25,3.36,1.25c2.77,0,4.86-2.55,4.86-5.89
		c0-5.05-3.17-6.05-4.88-6.05c-2.83,0-5.02,2.85-5.02,6.19c0,1.5,0.36,2.74,0.98,3.67 M280.95,35.12c-2.63,0-3.67-3.26-3.67-5.92
		c0-2.31,0.9-4.43,3.1-4.43c2.68,0,3.64,2.86,3.64,5.65C284.04,33.78,282.84,35.12,280.95,35.12z"/>
	<path class="st0" d="M260.23,33.84c0.13,0.18,0.37,0.52,0.68,0.81c0.87,0.82,2.03,1.25,3.36,1.25c2.77,0,4.86-2.55,4.86-5.89
		c0-5.05-3.17-6.05-4.88-6.05c-2.83,0-5.02,2.85-5.02,6.19c0,1.5,0.36,2.74,0.98,3.67 M264.48,35.12c-2.63,0-3.67-3.26-3.67-5.92
		c0-2.31,0.9-4.43,3.1-4.43c2.68,0,3.64,2.86,3.64,5.65C267.56,33.78,266.37,35.12,264.48,35.12z"/>
	<path class="st0" d="M249.67,33.84c0.13,0.18,0.37,0.52,0.68,0.81c0.87,0.82,2.03,1.25,3.36,1.25c2.77,0,4.86-2.55,4.86-5.89
		c0-5.05-3.17-6.05-4.88-6.05c-2.83,0-5.02,2.85-5.02,6.19c0,1.5,0.36,2.74,0.98,3.67 M253.92,35.12c-2.63,0-3.67-3.26-3.67-5.92
		c0-2.31,0.9-4.43,3.1-4.43c2.68,0,3.64,2.86,3.64,5.65C257,33.78,255.81,35.12,253.92,35.12z"/>
	<path class="st0" d="M228.81,30.14c0-3.4,2.21-6.19,5.3-6.19c1.22,0,2.89,0.38,2.96,1.01c0.05,0.6,0.02,1.25,0.02,1.6
		c0,0.38-0.07,0.57-0.2,0.57c-0.24,0-0.51-0.52-0.59-0.62c-0.83-1.25-1.91-1.66-3.04-1.66c-2.08,0-2.68,2.39-2.68,4.35
		c0,2.93,1.36,5.35,4.12,5.35c1.91,0,2.99-1.58,3.36-1.58c0.07,0,0.2,0.08,0.2,0.16c0,0.44-1.47,2.77-4.82,2.77
		C230.63,35.9,228.81,33.16,228.81,30.14z"/>
	<path class="st0" d="M339.47,30.14c0-3.4,2.21-6.19,5.3-6.19c1.22,0,2.89,0.38,2.96,1.01c0.05,0.6,0.02,1.25,0.02,1.6
		c0,0.38-0.07,0.57-0.2,0.57c-0.24,0-0.51-0.52-0.59-0.62c-0.83-1.25-1.91-1.66-3.04-1.66c-2.08,0-2.68,2.39-2.68,4.35
		c0,2.93,1.36,5.35,4.12,5.35c1.91,0,2.99-1.58,3.36-1.58c0.07,0,0.2,0.08,0.2,0.16c0,0.44-1.47,2.77-4.82,2.77
		C341.29,35.9,339.47,33.16,339.47,30.14z"/>
	<g>
		<path class="st1" d="M271.62,25.26v-7.04c0-0.28-0.14-0.45-0.29-0.45c-0.37-0.02-0.84,0.95-2.58,1.35
			c-0.12,0.03-0.57,0.07-0.57,0.24c0,0.6,1.81-0.28,1.84,1.56v12.8c0,1.39-1.19,1.21-1.41,1.65c-0.04,0.19,0.07,0.28,0.24,0.28
			c0.38,0,1.44-0.11,2.18-0.11c0.74,0,1.79,0.26,2.29,0.26c0.29,0,0.41-0.06,0.41-0.4c-0.25-0.49-2.1,0.26-2.1-2.19v-6"/>
	</g>
	<path class="st0" d="M291.54,18.18c-2.13-0.01-3.15,1.11-3.83,2.33c-0.33,0.59-0.76,1.83-0.76,3.6h-1.29c0,0-0.01,0-0.03,0
		c-0.22,0-1.11,1.21-0.82,1.21l0.7,0h1.43L286.94,34c0,1.32-1.33,0.99-1.33,1.57c0,0.22,0.3,0.17,0.44,0.17c0,0,1.28-0.21,2.09-0.21
		c0.81,0,1.84,0.21,1.84,0.21c0.22,0,0.58,0.08,0.58-0.25c0-0.61-1.96,0.06-1.96-1.71l0.01-8.45h1.83l0.64-0.01
		c0.12,0,0.22-0.22,0.29-0.36c0.2-0.38,0.55-1.01,0.55-1.09c0-0.08,0.02-0.35-0.11-0.35c-0.08,0-0.39,0.61-1.08,0.61h-2.12
		c0-1.49-0.04-1.83,0.03-2.65c0.11-1.29,0.67-2.11,1.74-2.14c1.74-0.04,1.49,1.16,1.88,1.16c0.3,0,0.41-1.2,0.41-1.72
		C292.67,18.29,291.9,18.19,291.54,18.18z"/>
	<path class="st0" d="M312.99,33.53c0.12,2.15,1.89,1.2,1.89,2.1c0,0.26-0.31,0.26-0.58,0.26c-0.46,0-1.29-0.1-2.25-0.1
		c-0.74,0-1.51,0.1-2.11,0.1c-0.21,0-0.26-0.13-0.26-0.23c0-0.77,1.51-0.21,1.49-2.1l-0.24-9.94c0-0.64-0.12-1-0.26-1
		c-0.17,0-0.38,0.23-0.62,0.77l-4.96,10.81c-0.12,0.23-0.5,1.28-0.74,1.28c-0.24,0-0.41-0.56-0.48-0.74l-5.11-11.43
		c-0.07-0.2-0.19-0.28-0.29-0.28c-0.07,0-0.14,0.13-0.17,0.38l-0.29,9c-0.12,3.41,2.16,2.28,2.16,3.2c0,0.26-0.26,0.28-0.6,0.28
		c-0.31,0-1.39-0.1-2.11-0.1c-1.25,0-1.65,0.1-2.09,0.1c-0.17,0-0.24-0.13-0.24-0.31c0-0.87,1.53,0.18,1.7-2.49
		c0.29-4.18,0.57-6.89,0.57-9.61c0-6.02-2.28-4.59-2.28-5.46c0-0.23,0.19-0.28,0.41-0.28c0.43,0,0.86,0.1,1.32,0.1
		c0.43,0,0.86-0.1,1.3-0.1c0.34,0,0.38,0.44,0.5,0.72l5.71,13.02c0.26,0.54,0.36,0.77,0.53,0.77c0.12,0,0.36-0.54,0.74-1.38
		l5.71-12.25c0.14-0.28,0.34-0.9,0.62-0.87c0.24,0,1.01,0.1,1.13,0.1c0.55,0,0.77-0.1,1.15-0.1c0.14,0,0.24,0.15,0.24,0.31
		c0,0.82-1.92-0.28-1.82,2.77L312.99,33.53z"/>
	<path class="st0" d="M331.52,21.02c0-1.63-2.01-0.92-2.01-1.49c0-0.16,0.1-0.27,0.23-0.3c1.96-0.49,2.62-1.49,3.2-1.49
		c0.15,0,0.3,0.16,0.3,0.43V34.3c0.01,0.39,0.07,0.34,0.9,0.36c0.18,0,0.43,0.02,0.41,0.23c-0.02,0.22-0.45,0.58-1.15,0.59
		c-0.66,0.01-1.37,0.47-1.6,0.47c-0.2,0-0.28-0.22-0.28-0.41v-1.49h-0.05c-0.86,1.17-2.26,1.9-3.74,1.9c-2.8,0-4.5-2.74-4.5-5.54
		c0-3.2,2.11-6.41,5.32-6.41c1.07,0,2.11,0.33,2.98,0.95V21.02z M331.52,27.77c0-2.01-1.53-3.15-3.36-3.15
		c-2.39,0-3.46,2.39-3.46,4.64c0,2.25,1.53,5.51,3.94,5.51c2.11,0,2.88-1.38,2.88-2.36V27.77z"/>
	<g>
		<path class="st0" d="M28.21,17.59L28.21,17.59L28.21,17.59L28.21,17.59L28.21,17.59c-0.08,0-3.83,0.04-9.09-1.05v15.13v0.03
			c0,0.24,0.01,0.41,0.01,0.41l0,0.01l0,0.01c0.03,0.7,0.24,1.26,0.66,1.74c0.28,0.3,0.66,0.61,1.2,0.9
			c0.15,0.08,0.31,0.16,0.48,0.24c0.13,0.06,0.27,0.12,0.41,0.18v0l0,0c0.11,0.05,0.48,0.21,0.6,0.25l5.73,2.17v0l0,0l0,0v0
			l5.73-2.17c0.12-0.05,0.49-0.21,0.6-0.25l0,0v0c0.14-0.06,0.28-0.12,0.41-0.18c0.17-0.08,0.33-0.16,0.48-0.24
			c0.54-0.3,0.92-0.61,1.2-0.9c0.42-0.48,0.63-1.04,0.66-1.74l0-0.01l0-0.01c0,0,0-0.17,0.01-0.41v-0.03V16.54
			C32.04,17.63,28.29,17.6,28.21,17.59z"/>
		<g>
			<path class="st2" d="M28.21,18.5L28.21,18.5L28.21,18.5L28.21,18.5L28.21,18.5c-0.07,0-3.5,0.03-8.31-0.96v13.83v0.03
				c0,0.22,0.01,0.37,0.01,0.38l0,0.01l0,0.01c0.03,0.64,0.22,1.16,0.61,1.59c0.25,0.27,0.6,0.55,1.09,0.83
				c0.13,0.07,0.28,0.15,0.44,0.22c0.12,0.06,0.24,0.11,0.38,0.16v0l0,0c0.1,0.04,0.44,0.19,0.55,0.23l5.24,1.98v0l0,0l0,0v0
				l5.24-1.98c0.11-0.04,0.45-0.19,0.55-0.23l0,0v0c0.13-0.05,0.26-0.11,0.38-0.16c0.16-0.08,0.3-0.15,0.44-0.22
				c0.49-0.27,0.84-0.56,1.09-0.83c0.38-0.44,0.57-0.95,0.61-1.59l0-0.01l0-0.01c0,0,0-0.16,0.01-0.38v-0.03V17.53
				C31.71,18.53,28.28,18.5,28.21,18.5z"/>
			<path class="st3" d="M28.21,19.32L28.21,19.32L28.21,19.32L28.21,19.32L28.21,19.32c-0.07,0-3.2,0.03-7.6-0.88v3.54
				c4.4,0.91,7.53,0.88,7.6,0.88v0l0,0l0,0v0c0.06,0,3.2,0.03,7.6-0.88v-3.54C31.41,19.35,28.28,19.32,28.21,19.32z"/>
			<path class="st4" d="M28.21,22.86L28.21,22.86L28.21,22.86L28.21,22.86L28.21,22.86c-0.07,0-3.2,0.03-7.6-0.88v4.33v3.54
				c4.4,0.91,7.53,0.88,7.6,0.88v0l0,0l0,0v0c0.06,0,3.2,0.03,7.6-0.88v-3.54v-4.33C31.41,22.89,28.28,22.86,28.21,22.86z"/>
			<path class="st3" d="M20.62,31.47l0,0.01c0.03,0.59,0.2,1.06,0.55,1.46c0.23,0.25,0.55,0.51,1,0.76c0.12,0.07,0.26,0.14,0.4,0.2
				c0.11,0.05,0.22,0.1,0.34,0.15v0l0,0c0.09,0.04,0.4,0.17,0.5,0.21l4.79,1.81v0l0,0l0,0v0L33,34.26c0.1-0.04,0.41-0.17,0.5-0.21
				l0,0v0c0.12-0.05,0.24-0.1,0.34-0.15c0.14-0.07,0.28-0.14,0.4-0.2c0.45-0.25,0.77-0.51,1-0.76c0.35-0.4,0.52-0.87,0.55-1.46
				l0-0.01l0-0.01c0,0,0-0.14,0.01-0.34v-0.03v-1.23c-4.4,0.91-7.53,0.88-7.6,0.88v0l0,0l0,0v0c-0.06,0-3.2,0.03-7.6-0.88v1.26
				c0,0.2,0.01,0.34,0.01,0.34L20.62,31.47z"/>
			<polygon class="st5" points="23.29,19.27 23.65,20.34 24.77,20.35 23.87,21.01 24.21,22.08 23.29,21.43 22.38,22.08 22.72,21.01 
				21.81,20.35 22.94,20.34 			"/>
			<polygon class="st5" points="33.13,19.27 33.49,20.34 34.61,20.35 33.71,21.01 34.04,22.08 33.13,21.43 32.21,22.08 32.55,21.01 
				31.65,20.35 32.77,20.34 			"/>
			<polygon class="st5" points="28.21,19.68 28.57,20.75 29.69,20.76 28.79,21.43 29.13,22.5 28.21,21.85 27.3,22.5 27.63,21.43 
				26.73,20.76 27.85,20.75 			"/>
			<g>
				<polygon class="st2" points="28.21,31.02 27.82,31.41 27.82,31.41 27.82,32.48 27.82,32.48 27.82,32.48 27.82,32.48 
					27.82,32.48 28.02,33.04 28.02,33.99 28.4,33.99 28.4,33.04 28.6,32.48 28.6,32.48 28.6,31.41 				"/>
				<polygon class="st2" points="28.4,34.85 28.4,34.28 28.02,34.28 28.02,34.85 27.82,35.22 28.21,35.7 28.6,35.22 				"/>
				<polygon class="st2" points="28.69,34.28 28.69,34.72 28.94,34.99 29.39,34.64 29.39,34.28 				"/>
				<polygon class="st2" points="29.16,32.52 28.69,33.04 28.69,33.99 29.07,33.99 29.07,33.42 29.44,33.02 29.44,33.02 
					29.92,33.33 30.22,33.02 30.22,32.52 				"/>
				<polygon class="st2" points="27.73,34.28 27.73,34.72 27.48,34.99 27.04,34.64 27.04,34.28 				"/>
				<polygon class="st2" points="27.26,32.52 27.73,33.04 27.73,33.99 27.35,33.99 27.35,33.42 26.98,33.02 26.98,33.02 
					26.51,33.33 26.2,33.02 26.2,32.52 				"/>
			</g>
			<g>
				<g>
					<polygon class="st3" points="31.83,24.11 31.83,28.63 28.8,28.63 28.58,28.81 28.21,29.13 27.84,28.81 27.63,28.63 
						24.59,28.63 24.59,24.11 23.95,24.58 23.95,29.27 27.52,29.27 27.84,29.54 28.21,29.86 28.58,29.54 28.9,29.27 32.47,29.27 
						32.47,24.58 					"/>
				</g>
				<g>
					<polygon class="st3" points="28.7,23.74 28.58,23.83 28.21,24.16 27.84,23.83 27.72,23.74 25.23,23.74 25.23,27.99 
						27.73,27.99 27.9,28.14 28.21,28.41 28.52,28.14 28.69,27.99 31.19,27.99 31.19,23.74 					"/>
				</g>
			</g>
			<g>
				<path class="st3" d="M33.13,25.06v2.88c0.82-0.12,1.72-0.27,2.68-0.47v-2.88C34.85,24.78,33.95,24.94,33.13,25.06z"/>
				<path class="st3" d="M23.29,25.06c-0.82-0.12-1.72-0.27-2.68-0.47v2.88c0.96,0.2,1.86,0.35,2.68,0.47V25.06z"/>
			</g>
			<g>
				<polygon class="st2" points="33.13,30.63 32.85,30.91 32.85,30.91 32.85,31.65 32.85,31.65 32.85,31.65 32.85,31.65 
					32.85,31.65 32.99,32.05 32.99,32.71 33.26,32.71 33.26,32.05 33.4,31.65 33.4,31.65 33.4,30.91 				"/>
				<polygon class="st2" points="33.26,33.32 33.26,32.92 32.99,32.92 32.99,33.32 32.85,33.57 33.13,33.92 33.4,33.57 				"/>
				<polygon class="st2" points="33.46,32.92 33.46,33.22 33.64,33.42 33.95,33.17 33.95,32.92 				"/>
				<polygon class="st2" points="33.79,31.68 33.46,32.05 33.46,32.71 33.73,32.71 33.73,32.32 33.99,32.04 33.99,32.04 
					34.32,32.25 34.53,32.04 34.53,31.68 				"/>
				<polygon class="st2" points="32.79,32.92 32.79,33.22 32.61,33.42 32.3,33.17 32.3,32.92 				"/>
				<polygon class="st2" points="32.46,31.68 32.79,32.05 32.79,32.71 32.53,32.71 32.53,32.32 32.26,32.04 32.26,32.04 
					31.93,32.25 31.72,32.04 31.72,31.68 				"/>
			</g>
			<g>
				<polygon class="st2" points="23.29,30.63 23.02,30.91 23.02,30.91 23.02,31.65 23.02,31.65 23.02,31.65 23.02,31.65 
					23.02,31.65 23.16,32.05 23.16,32.71 23.43,32.71 23.43,32.05 23.57,31.65 23.57,31.65 23.57,30.91 				"/>
				<polygon class="st2" points="23.43,33.32 23.43,32.92 23.16,32.92 23.16,33.32 23.02,33.57 23.29,33.92 23.57,33.57 				"/>
				<polygon class="st2" points="23.63,32.92 23.63,33.22 23.81,33.42 24.12,33.17 24.12,32.92 				"/>
				<polygon class="st2" points="23.96,31.68 23.63,32.05 23.63,32.71 23.89,32.71 23.89,32.32 24.16,32.04 24.16,32.04 
					24.49,32.25 24.7,32.04 24.7,31.68 				"/>
				<polygon class="st2" points="22.96,32.92 22.96,33.22 22.78,33.42 22.47,33.17 22.47,32.92 				"/>
				<polygon class="st2" points="22.63,31.68 22.96,32.05 22.96,32.71 22.69,32.71 22.69,32.32 22.43,32.04 22.43,32.04 22.1,32.25 
					21.89,32.04 21.89,31.68 				"/>
			</g>
		</g>
	</g>
</g>
</svg>
