<svg xmlns="http://www.w3.org/2000/svg" viewBox="0 0 64 64"><defs><style>.a{fill:#d01c29;}</style></defs><path class="a" d="M50.25,23.33c-.58-.2-1.18-.39-1.81-.57.16-.64.3-1.27.43-1.89s.18-1,.26-1.44C50,13.6,49,9.51,46.2,7.9s-6.86-.46-11.45,3.23c-.38.31-.77.63-1.15,1s-.93.83-1.39,1.28-.89.88-1.33,1.35-.85.92-1.28,1.4C28.81,17,28,18,27.27,19c-.5.66-1,1.34-1.5,2-.84.08-1.67.17-2.49.28-1.25.17-2.47.37-3.63.6.15.6.32,1.21.5,1.82l1.77-.32c.8-.13,1.62-.24,2.46-.34-.44.68-.88,1.38-1.31,2.08l-.77,1.3-.74,1.31c.3.74.61,1.49,1,2.24.45-.86.92-1.72,1.43-2.6s1-1.72,1.55-2.55c.43-.68.88-1.36,1.33-2,.79-.06,1.6-.11,2.42-.14q1.46-.06,3-.06c1,0,2,0,3,.06s1.63.08,2.42.14c.46.66.9,1.34,1.34,2,.53.83,1,1.68,1.54,2.55s1,1.74,1.43,2.61.74,1.44,1.09,2.16.69,1.5,1,2.24.64,1.54.93,2.3c.22.57.42,1.13.6,1.69.64-.16,1.25-.32,1.84-.49-.38-1.13-.82-2.28-1.29-3.44-.32-.76-.65-1.53-1-2.3S44.38,30.65,44,29.9s-.75-1.45-1.15-2.18l-.74-1.31-.77-1.3c-.43-.7-.86-1.4-1.31-2.08.85.1,1.67.21,2.46.34.61.1,1.2.21,1.77.32s1.26.26,1.86.4c-.18.6-.38,1.21-.59,1.82s-.38,1.12-.6,1.68c.4.75.78,1.5,1.15,2.25.47-1.17.91-2.31,1.29-3.44.21-.62.4-1.23.58-1.83q.94.27,1.8.57c5.4,1.85,8.55,4.47,8.55,7s-3.15,5.15-8.55,7q-.86.3-1.8.57t-1.83.48c-.6.14-1.22.27-1.86.4s-1.16.22-1.77.32c-.79.12-1.61.24-2.46.34.45-.68.88-1.38,1.31-2.09.26-.43.52-.86.77-1.3s.5-.87.74-1.31c-.3-.74-.61-1.48-1-2.24-.45.87-.93,1.74-1.43,2.61s-1,1.71-1.54,2.54-.88,1.37-1.34,2c-.79.07-1.59.11-2.42.15s-2,.06-3,.06-2,0-3-.06c.48.66,1,1.31,1.47,1.94h3c.83,0,1.65-.05,2.46-.1-.51.68-1,1.33-1.53,2-.39.47-.77.92-1.16,1.37s-.85,1-1.27,1.4c-.43-.45-.86-.92-1.28-1.4s-.77-.9-1.15-1.37c-.52-.63-1-1.28-1.53-2s-1-1.31-1.43-2-.9-1.33-1.33-2-1-1.67-1.55-2.54-1-1.74-1.43-2.62q-.57-1.08-1.08-2.16c-.36-.75-.7-1.49-1-2.23s-.65-1.54-.94-2.31q-.32-.84-.6-1.68c-.21-.61-.4-1.22-.58-1.82s-.35-1.21-.5-1.81-.3-1.27-.42-1.89c-.08-.42-.16-.84-.22-1.25-.76-4.93,0-8.43,2-9.6A3.6,3.6,0,0,1,21,9.08c2,0,4.6,1.22,7.47,3.52.33.27.67.56,1,.85.45-.47.89-.92,1.33-1.35-.38-.34-.76-.66-1.14-1C25.07,7.44,21,6.29,18.22,7.9s-3.83,5.7-2.93,11.53c.07.47.16,1,.26,1.44s.26,1.25.42,1.89.32,1.2.5,1.81.37,1.21.58,1.83c.38,1.13.81,2.27,1.29,3.43.31.77.65,1.53,1,2.3s.7,1.49,1.07,2.23.75,1.45,1.15,2.18c.24.44.49.88.74,1.31s.51.87.77,1.3c.43.71.87,1.41,1.31,2.09s.92,1.37,1.39,2,1,1.37,1.5,2c.77,1,1.54,1.93,2.33,2.83.42.48.85,1,1.28,1.4-.47.45-.93.87-1.4,1.28s-.67.57-1,.84c-3.89,3.13-7.28,4.25-9.32,3.07s-2.87-5.28-1.79-10.86q.18-.91.42-1.89c.6.15,1.23.29,1.87.42,1.16.23,2.37.43,3.62.6-.46-.69-.91-1.39-1.36-2.1l-1.77-.32c-.64-.13-1.26-.26-1.87-.41.18-.59.37-1.2.58-1.82s.4-1.12.62-1.69c-.4-.74-.78-1.49-1.14-2.23-.48,1.17-.92,2.32-1.3,3.44-.2.62-.4,1.23-.57,1.83-.63-.18-1.23-.37-1.81-.57-5.4-1.86-8.54-4.47-8.54-7s3.14-5.14,8.54-7c-.18-.61-.35-1.22-.5-1.81-6.11,2.08-9.94,5.23-9.94,8.8s3.83,6.73,10,8.81c.58.2,1.18.39,1.81.57-.16.64-.31,1.27-.43,1.89-1.24,6.31-.43,11.18,2.67,13a5.4,5.4,0,0,0,2.78.71c2.45,0,5.43-1.34,8.67-3.94.38-.31.76-.64,1.14-1s.93-.84,1.4-1.29c.46.45.93.88,1.39,1.29s.77.66,1.15,1c3.24,2.6,6.21,3.94,8.66,3.94a5.44,5.44,0,0,0,2.79-.71C49,54.76,50,50.66,49.13,44.84c-.08-.48-.17-1-.26-1.44-.6.16-1.21.32-1.84.47.09.43.16.85.23,1.26.76,4.92,0,8.42-2,9.6s-5.43.06-9.32-3.07l-1-.84c-.46-.41-.93-.83-1.39-1.28.42-.45.85-.92,1.27-1.4.79-.9,1.57-1.84,2.33-2.83.51-.66,1-1.34,1.5-2,.85-.08,1.68-.17,2.49-.28,1.26-.17,2.47-.37,3.64-.61.63-.12,1.24-.26,1.85-.4s1.23-.32,1.82-.49,1.23-.36,1.81-.56c6.11-2.08,9.94-5.23,9.94-8.81S56.36,25.41,50.25,23.33Zm-3-4.19c-.07.41-.14.83-.23,1.25-.12.62-.25,1.25-.41,1.89l-1.85-.41c-1.17-.23-2.38-.43-3.64-.6-.81-.11-1.64-.2-2.49-.28-.49-.69-1-1.37-1.5-2-.76-1-1.54-1.94-2.33-2.83-.44.43-.89.88-1.33,1.35.39.44.77.9,1.16,1.36.51.64,1,1.29,1.53,2-.81,0-1.63-.08-2.46-.1h-3c-.84,0-1.66.05-2.46.1.5-.68,1-1.33,1.53-2,.38-.46.77-.92,1.15-1.36s.85-.95,1.28-1.4.88-.92,1.33-1.35.93-.87,1.39-1.28.67-.58,1-.85c2.88-2.31,5.48-3.52,7.47-3.52a3.6,3.6,0,0,1,1.85.46C47.29,10.71,48,14.21,47.26,19.14Z"/><path class="a" d="M31.84,36.81a4.48,4.48,0,1,0-4.48-4.47A4.48,4.48,0,0,0,31.84,36.81Zm0-7a2.48,2.48,0,1,1-2.48,2.48A2.48,2.48,0,0,1,31.84,29.86Z"/></svg>